<svg width="205" height="110" viewBox="0 0 205 110" fill="none" xmlns="http://www.w3.org/2000/svg">
<g clip-path="url(#clip0_1_3719)">
<path d="M132.951 16.4914H121.509V5.04886C121.509 2.26596 119.243 0 116.46 0H89.5364C86.7535 0 84.4875 2.26596 84.4875 5.04886V16.4914H73.0489C70.266 16.4914 68 18.7535 68 21.5403V48.4636C68 51.2465 70.266 53.5125 73.0489 53.5125H84.4914V64.955C84.4914 67.7379 86.7535 70.0039 89.5403 70.0039H116.464C119.247 70.0039 121.512 67.7379 121.512 64.955V53.5125H132.955C135.738 53.5125 138.004 51.2465 138.004 48.4636V21.5403C138 18.7535 135.734 16.4914 132.951 16.4914ZM132.613 48.1255H121.509V27.2576H116.125V64.613H89.8745V53.5086H110.738V48.1255H73.3831V21.8745H84.4875V42.7385H89.8706V5.38312H116.118V16.4875H95.2615V21.8706H132.617V48.1255H132.613Z" fill="url(#paint0_linear_1_3719)"/>
</g>
<path d="M75.8469 105.25C74.2635 105.25 72.9052 104.992 71.7719 104.475C70.6552 103.958 69.7802 103.2 69.1469 102.2C68.5302 101.2 68.1885 99.9583 68.1219 98.475C68.1052 97.7917 68.0969 97.0583 68.0969 96.275C68.0969 95.4917 68.1052 94.7417 68.1219 94.025C68.1885 92.575 68.5385 91.35 69.1719 90.35C69.8052 89.3333 70.6885 88.5667 71.8219 88.05C72.9552 87.5167 74.2969 87.25 75.8469 87.25C76.9469 87.25 77.9635 87.3917 78.8969 87.675C79.8302 87.9417 80.6469 88.3417 81.3469 88.875C82.0469 89.3917 82.5885 90.025 82.9719 90.775C83.3719 91.5083 83.5802 92.3417 83.5969 93.275C83.6135 93.425 83.5635 93.55 83.4469 93.65C83.3469 93.75 83.2219 93.8 83.0719 93.8H79.6969C79.4802 93.8 79.3135 93.7583 79.1969 93.675C79.0802 93.575 78.9802 93.4 78.8969 93.15C78.6635 92.2667 78.2802 91.6667 77.7469 91.35C77.2302 91.0167 76.5885 90.85 75.8219 90.85C74.9052 90.85 74.1802 91.1083 73.6469 91.625C73.1135 92.125 72.8219 92.9667 72.7719 94.15C72.7219 95.5167 72.7219 96.9167 72.7719 98.35C72.8219 99.5333 73.1135 100.383 73.6469 100.9C74.1802 101.4 74.9052 101.65 75.8219 101.65C76.5885 101.65 77.2385 101.483 77.7719 101.15C78.3052 100.817 78.6802 100.217 78.8969 99.35C78.9635 99.1 79.0552 98.9333 79.1719 98.85C79.3052 98.75 79.4802 98.7 79.6969 98.7H83.0719C83.2219 98.7 83.3469 98.75 83.4469 98.85C83.5635 98.95 83.6135 99.075 83.5969 99.225C83.5802 100.158 83.3719 101 82.9719 101.75C82.5885 102.483 82.0469 103.117 81.3469 103.65C80.6469 104.167 79.8302 104.567 78.8969 104.85C77.9635 105.117 76.9469 105.25 75.8469 105.25ZM86.2756 105C86.0922 105 85.9422 104.942 85.8256 104.825C85.7089 104.708 85.6506 104.558 85.6506 104.375V87.875C85.6506 87.6917 85.7089 87.5417 85.8256 87.425C85.9422 87.3083 86.0922 87.25 86.2756 87.25H89.2256C89.4089 87.25 89.5589 87.3083 89.6756 87.425C89.7922 87.5417 89.8506 87.6917 89.8506 87.875V104.375C89.8506 104.558 89.7922 104.708 89.6756 104.825C89.5589 104.942 89.4089 105 89.2256 105H86.2756ZM93.9834 105C93.8001 105 93.6501 104.942 93.5334 104.825C93.4167 104.708 93.3584 104.558 93.3584 104.375V92.625C93.3584 92.4417 93.4167 92.2917 93.5334 92.175C93.6501 92.0583 93.8001 92 93.9834 92H96.9334C97.1001 92 97.2417 92.0583 97.3584 92.175C97.4917 92.2917 97.5584 92.4417 97.5584 92.625V104.375C97.5584 104.558 97.4917 104.708 97.3584 104.825C97.2417 104.942 97.1001 105 96.9334 105H93.9834ZM93.9584 90.125C93.7751 90.125 93.6251 90.0667 93.5084 89.95C93.3917 89.8333 93.3334 89.6833 93.3334 89.5V87.275C93.3334 87.0917 93.3917 86.9417 93.5084 86.825C93.6251 86.6917 93.7751 86.625 93.9584 86.625H96.9334C97.1167 86.625 97.2667 86.6917 97.3834 86.825C97.5167 86.9417 97.5834 87.0917 97.5834 87.275V89.5C97.5834 89.6833 97.5167 89.8333 97.3834 89.95C97.2667 90.0667 97.1167 90.125 96.9334 90.125H93.9584ZM101.594 105C101.41 105 101.26 104.942 101.144 104.825C101.027 104.708 100.969 104.558 100.969 104.375V92.625C100.969 92.4417 101.027 92.2917 101.144 92.175C101.26 92.0583 101.41 92 101.594 92H104.469C104.652 92 104.802 92.0583 104.919 92.175C105.035 92.2917 105.094 92.4417 105.094 92.625V93.575C105.527 93.0583 106.094 92.625 106.794 92.275C107.494 91.925 108.319 91.75 109.269 91.75C110.235 91.75 111.085 91.9667 111.819 92.4C112.569 92.8333 113.152 93.475 113.569 94.325C114.002 95.1583 114.219 96.1833 114.219 97.4V104.375C114.219 104.558 114.152 104.708 114.019 104.825C113.902 104.942 113.76 105 113.594 105H110.444C110.277 105 110.127 104.942 109.994 104.825C109.877 104.708 109.819 104.558 109.819 104.375V97.55C109.819 96.7667 109.627 96.1667 109.244 95.75C108.877 95.3167 108.327 95.1 107.594 95.1C106.91 95.1 106.36 95.3167 105.944 95.75C105.544 96.1667 105.344 96.7667 105.344 97.55V104.375C105.344 104.558 105.277 104.708 105.144 104.825C105.027 104.942 104.885 105 104.719 105H101.594ZM120.609 105.25C119.709 105.25 118.9 105.083 118.184 104.75C117.484 104.4 116.925 103.933 116.509 103.35C116.092 102.767 115.884 102.108 115.884 101.375C115.884 100.192 116.367 99.2583 117.334 98.575C118.3 97.875 119.584 97.4 121.184 97.15L124.309 96.675V96.325C124.309 95.725 124.184 95.2667 123.934 94.95C123.684 94.6333 123.225 94.475 122.559 94.475C122.092 94.475 121.709 94.5667 121.409 94.75C121.125 94.9333 120.9 95.1833 120.734 95.5C120.584 95.7167 120.375 95.825 120.109 95.825H117.309C117.125 95.825 116.984 95.775 116.884 95.675C116.784 95.5583 116.742 95.425 116.759 95.275C116.759 94.975 116.867 94.6333 117.084 94.25C117.317 93.85 117.667 93.4583 118.134 93.075C118.6 92.6917 119.2 92.375 119.934 92.125C120.667 91.875 121.55 91.75 122.584 91.75C123.667 91.75 124.592 91.875 125.359 92.125C126.125 92.375 126.742 92.725 127.209 93.175C127.692 93.625 128.05 94.1583 128.284 94.775C128.517 95.375 128.634 96.0417 128.634 96.775V104.375C128.634 104.558 128.567 104.708 128.434 104.825C128.317 104.942 128.175 105 128.009 105H125.109C124.925 105 124.775 104.942 124.659 104.825C124.542 104.708 124.484 104.558 124.484 104.375V103.5C124.267 103.817 123.975 104.108 123.609 104.375C123.242 104.642 122.809 104.85 122.309 105C121.825 105.167 121.259 105.25 120.609 105.25ZM121.784 102.4C122.267 102.4 122.7 102.3 123.084 102.1C123.484 101.883 123.792 101.558 124.009 101.125C124.242 100.675 124.359 100.117 124.359 99.45V99.1L122.234 99.475C121.45 99.6083 120.875 99.8167 120.509 100.1C120.159 100.367 119.984 100.683 119.984 101.05C119.984 101.333 120.067 101.575 120.234 101.775C120.4 101.975 120.617 102.133 120.884 102.25C121.15 102.35 121.45 102.4 121.784 102.4ZM129.81 109.75C129.626 109.75 129.476 109.692 129.36 109.575C129.243 109.458 129.185 109.308 129.185 109.125V107.1C129.185 106.917 129.243 106.767 129.36 106.65C129.476 106.533 129.626 106.475 129.81 106.475H130.735C131.151 106.475 131.468 106.392 131.685 106.225C131.901 106.075 132.051 105.858 132.135 105.575C132.218 105.308 132.26 105 132.26 104.65V92.625C132.26 92.4417 132.318 92.2917 132.435 92.175C132.568 92.0583 132.718 92 132.885 92H135.985C136.168 92 136.318 92.0583 136.435 92.175C136.551 92.2917 136.61 92.4417 136.61 92.625V104.75C136.61 105.833 136.393 106.742 135.96 107.475C135.543 108.225 134.935 108.792 134.135 109.175C133.335 109.558 132.36 109.75 131.21 109.75H129.81ZM132.86 90.125C132.693 90.125 132.543 90.0667 132.41 89.95C132.293 89.8333 132.235 89.6833 132.235 89.5V87.275C132.235 87.0917 132.293 86.9417 132.41 86.825C132.543 86.6917 132.693 86.625 132.86 86.625H136.01C136.176 86.625 136.318 86.6917 136.435 86.825C136.568 86.9417 136.635 87.0917 136.635 87.275V89.5C136.635 89.6833 136.568 89.8333 136.435 89.95C136.318 90.0667 136.176 90.125 136.01 90.125H132.86Z" fill="#222222"/>
<defs>
<linearGradient id="paint0_linear_1_3719" x1="68" y1="3.58994" x2="144.397" y2="18.4545" gradientUnits="userSpaceOnUse">
<stop stop-color="#0EBE7E"/>
<stop offset="1" stop-color="#07D9AD"/>
</linearGradient>
<clipPath id="clip0_1_3719">
<rect width="70" height="70" fill="white" transform="translate(68)"/>
</clipPath>
</defs>
</svg>
